<svg width="17" height="16" viewBox="0 0 17 16" fill="none" xmlns="http://www.w3.org/2000/svg">
<path d="M5.33558 7.47976C5.84534 7.47976 6.31264 7.243 6.69066 6.87923C6.29416 6.16823 6.06783 5.36385 6.06783 4.592C6.06783 3.93743 6.22573 3.31999 6.50367 2.77479C6.15895 2.56341 5.75605 2.43951 5.32387 2.43951C4.06065 2.43951 3.03674 3.47826 3.03674 4.75946C3.03674 6.04084 4.07236 7.47976 5.33558 7.47976Z" fill="#CB3CFF"/>
<path d="M6.8738 8.58C6.65058 8.53184 6.41949 8.50519 6.18199 8.50519H4.4811C2.67116 8.50519 1.20374 9.97719 1.20374 11.7931L1.21142 12.1819C1.21142 12.6892 1.62146 13.1006 2.12719 13.1006H3.80429C3.88663 11.0803 5.12479 9.35791 6.8738 8.58Z" fill="#CB3CFF"/>
<path d="M10.016 7.96472C11.5822 7.96472 12.8376 6.18041 12.8376 4.59169C12.8376 3.00297 11.5678 1.71497 10.0016 1.71497C8.43534 1.71497 7.16553 3.00297 7.16553 4.59169C7.16571 6.18041 8.4498 7.96472 10.016 7.96472Z" fill="#CB3CFF"/>
<path d="M15.1296 13.3137C15.1296 11.0619 13.3101 9.23663 11.0658 9.23663H8.95672C6.7124 9.23663 4.89294 11.0619 4.89294 13.3137L4.90264 13.7958C4.90264 14.4248 5.41093 14.9349 6.03816 14.9349H14.004C14.631 14.9349 15.1395 14.4248 15.1395 13.7958L15.1296 13.3137Z" fill="#CB3CFF"/>
</svg>
